<?xml version="1.0" encoding="utf-8"?>
<!-- Generator: Adobe Illustrator 21.1.0, SVG Export Plug-In . SVG Version: 6.00 Build 0)  -->
<svg version="1.1" id="Layer_1" xmlns="http://www.w3.org/2000/svg" xmlns:xlink="http://www.w3.org/1999/xlink" x="0px" y="0px"
	 viewBox="0 0 841.9 363.2" style="enable-background:new 0 0 841.9 363.2;" xml:space="preserve">
<style type="text/css">
	.st0{fill:#1166B0;}
	.st1{fill:#FFD405;}
</style>
<g>
	<g>
		<path class="st0" d="M400,157.7v96.6c12.6-4.2,29.9-22.5,29.9-58.8C429.9,164.9,414.5,157.7,400,157.7z"/>
		<path class="st0" d="M804,0H39C17.5,0,0,17.5,0,39v285c0,21.5,17.5,39,39,39h765c21.5,0,39-17.5,39-39V39C843,17.5,825.5,0,804,0z
			 M146.3,304.4l-3,0.7c-5.3,1.2-11.4,2.7-19.4,2.7c-3.9,0-6,0-11.2-0.9c-7.3-1.3-15.6-3.8-23-8.4c-27.6-17.6-40.5-55.7-40.5-93.9
			c0-56.3,25-124.2,80.8-149.1l4.4-2l7.1,63.9l0.3,3.3l-2.8,1c-28.1,10.6-46.2,32.1-46.2,74.3c0,29,14.2,44.5,34.7,46.8
			c5.5,0.6,18.7-2.3,18.7-2.3l0.1,4.7l-0.1,55.8L146.3,304.4z M236.4,308.4c-3-9.8-27.8-82.6-31.3-94c5.6-6.7,14.7-21,14.7-38.3
			c0-12.2-4.2-23.8-18.1-24.1v68.9c0,9.9,0.3,75.4,0.6,79.3h-28.6c0.4-6.2,0.2-88.4,0.2-93.8v-21.2c0-7.8-0.2-64-0.6-68.9
			c17.6,0,35.5,0.5,47,3.6c19,4.9,29.3,20,29.3,43.8c0,21.2-6.5,37.5-16.6,51.7c3.9,8.8,23.6,49,26.9,57.3L236.4,308.4z
			 M283.5,300.1c0.4-13.7,0.4-69.2,0.4-75.1v-34.6c0-4.2-0.3-66.6-0.4-74.1c7.2,0,50.4-3.9,55.1-4.7l0.5,42.7
			c-4.7,0-24.9,1.3-27.2,1.3v34.2c2.6,0,17.4-1.3,23-2.3l0.4,41.4c-3.5,0-20.6-1-23.4-1v30.8c3.3,0,22.7,0.5,28.7-0.5l0.5,44.5
			C336.5,302.7,290.2,300.1,283.5,300.1z M371,301.3c0.5-11.9,0.8-76.1,0.8-83.1v-32.1c0-5.4-0.2-62.7-0.7-69.9
			c23.6,0,37.4,1.3,49.3,4.7c33.7,9.3,40.1,44.6,40.1,65.4C460.5,267.9,412.4,301.3,371,301.3z M515.7,300.1h-29.8
			c0.3-11.4,0.4-72,0.4-78.7v-28c0-4.4-0.4-71-0.4-77.2h29.8c-0.1,4.7-0.5,46.7-0.5,77.7v28C515.2,247.8,515.6,294.1,515.7,300.1z
			 M624.9,162c-2.5-0.3-26.3-1.5-28.3-1.5v72c0,26.7,0.1,62.4,0.4,67.6h-29.6c0.3-6.8,0.4-43.6,0.4-71.8v-67.8
			c-6.2,0-24.4,1.2-28.4,1.5v-45.3c5.8,1,36.2,2.1,37.6,2.1h11.2c2.4,0,30.4-1.1,36.7-2.1L624.9,162L624.9,162z M645.8,300.1
			c0.4-13.7,0.4-69.2,0.4-75.1v-34.6c0-4.2-0.3-66.6-0.4-74.1c7.2,0,50.4-3.9,55.1-4.7l0.5,42.7c-4.7,0-24.8,1.3-27.2,1.3v34.2
			c2.6,0,17.3-1.3,23-2.3l0.4,41.4c-3.5,0-20.6-1-23.4-1v30.8c3.3,0,22.7,0.5,28.7-0.5l0.5,44.5
			C698.8,302.7,652.4,300.1,645.8,300.1z M733.7,300.1c0.4-13.7,0.4-69.1,0.3-75.4v-34.4c0-4.2-0.2-69.2-0.5-74.1h30
			c-0.1,5.9-0.6,59.3-0.6,91.9v47.4c3.1,0,18.2,0,28.5-1l0.2,48.2C788.5,302.7,744,300.1,733.7,300.1z"/>
	</g>
	<path class="st1" d="M112.7,306.9c5.2,0.9,7.3,0.9,11.2,0.9c8,0,14.1-1.5,19.4-2.7l3-0.7l-0.1-3.4l0.1-55.8l-0.1-4.7
		c0,0-13.2,2.9-18.7,2.3C107,240.5,92.8,225,92.8,196c0-42.2,18.1-63.7,46.2-74.3l2.8-1l-0.3-3.3l-7.1-63.9l-4.4,2
		c-55.8,24.9-80.8,92.8-80.8,149.1c0,38.2,12.9,76.3,40.5,93.9C97.1,303.1,105.4,305.6,112.7,306.9"/>
</g>
</svg>
